# xmcd CD database file
#
# Track frame offsets:
#	150
#	18780
#	32938
#	46863
#	69790
#	86017
#	99559
#	117639
#	132737
#	152082
#	181409
#	198133
#	214059
#
# Disc length: 2992 seconds
#
# Revision: 0
# Processed by: cddbd v1.5.2PL0 Copyright (c) Steve Scherf et al.
# Submitted via: CDex 1.75
#
DISCID=af0bae0d
DTITLE=The Broadway Lullaby Project - Over the moon CD2
DYEAR=2012
DGENRE=Jazz
TTITLE0=Jadelyn's Song
TTITLE1=Every Breath and Thought
TTITLE2=I'll always be there
TTITLE3=This little world
TTITLE4=It takes all kinds
TTITLE5=Poppy the little brown bear
TTITLE6=Riding a white horse
TTITLE7=Yolanda
TTITLE8=All new
TTITLE9=First sonogram
TTITLE10=Sweet Child
TTITLE11=Winding down to sleep Lullaby with no words
TTITLE12=The man who invented ice cream
EXTD=YEAR: 2012
EXTT0=
EXTT1=
EXTT2=
EXTT3=
EXTT4=
EXTT5=
EXTT6=
EXTT7=
EXTT8=
EXTT9=
EXTT10=
EXTT11=
EXTT12=
PLAYORDER=
